#!OML:ASF H:\Terrain\Patient Classification 1\Walking\liu\liu.ASF
:FULLY-SPECIFIED
:DEGREES
224
root 9.43016 17.0299 0.220326 6.44936 -4.41218 -0.15168
lowerback -6.5318 1.38159 -2.91055
upperback -0.195256 1.99972 1.68434
thorax 3.30093 0.938101 3.56297
lowerneck -20.0304 -4.83885 -13.1263
upperneck 20.4953 -6.23731 14.2874
head 10.8068 -2.25162 6.48297
rclavicle -1.86858e-014 -2.50469e-014
rhumerus -30.5142 16.3244 -87.124
rradius 38.4503
rwrist -18.1353
rhand -30.2274 -25.2912
rfingers 7.12502
rthumb -3.53702 -55.2416
lclavicle -1.86858e-014 -2.50469e-014
lhumerus -43.9844 0.0144895 85.0004
lradius 19.4207
lwrist -7.45893
lhand -8.07647 -27.0485
lfingers 7.12502
lthumb 17.8353 2.15361
rfemur 5.2862 -2.14468 20.5738
rtibia 33.1562
rfoot 8.99143 1.81103
rtoes -20.992
lfemur -27.5684 5.62895 -22.8683
ltibia 21.1872
lfoot -2.03239 7.27315
ltoes -5.7945
225
root 9.45212 17.0516 0.363047 6.42358 -4.20675 0.54825
lowerback -6.28471 1.25669 -3.57026
upperback -0.29191 1.88091 1.47807
thorax 3.05804 0.877626 3.7002
lowerneck -20.4902 -4.92487 -12.8289
upperneck 20.9884 -6.32069 13.786
head 11.0587 -2.30556 6.24597
rclavicle 1.47349e-014 6.36111e-015
rhumerus -31.0827 15.9237 -87.3034
rradius 38.3236
rwrist -18.1906
rhand -30.1453 -25.5749
rfingers 7.12502
rthumb -3.45776 -55.5266
lclavicle 1.47349e-014 6.36111e-015
lhumerus -43.3165 0.00259875 85.0164
lradius 19.1656
lwrist -8.08858
lhand -8.84767 -27.7138
lfingers 7.12502
lthumb 17.0931 1.55423
rfemur 3.58597 -2.7207 19.6605
rtibia 36.492
rfoot 10.3029 1.44534
rtoes -20.8163
lfemur -26.965 5.85875 -23.8671
ltibia 20.9787
lfoot -2.05129 6.50918
ltoes -4.34733
226
root 9.47798 17.0683 0.508402 6.52577 -4.15661 1.00719
lowerback -6.34624 1.21778 -3.86816
upperback -0.313398 1.85973 1.24988
thorax 3.07044 0.864276 3.63081
lowerneck -21.092 -5.02181 -12.4812
upperneck 21.511 -6.45919 13.4202
head 11.3635 -2.36064 6.04438
rclavicle -8.39865e-015 8.74653e-015
rhumerus -31.5826 15.4575 -87.56
rradius 38.3267
rwrist -18.243
rhand -29.8395 -26.3035
rfingers 7.12502
rthumb -3.16247 -56.2598
lclavicle -8.39865e-015 8.74653e-015
lhumerus -42.5066 -0.40672 85.1204
lradius 18.9855
lwrist -8.83296
lhand -9.13201 -27.6856
lfingers 7.12502
lthumb 16.8194 1.60598
rfemur 1.72461 -3.1861 19.0036
rtibia 39.888
rfoot 11.5757 1.06692
rtoes -21.8818
lfemur -26.4246 6.3682 -24.6483
ltibia 20.5823
lfoot -2.20393 5.82504
ltoes -2.80144
227
root 9.50453 17.0889 0.667625 6.47694 -4.34197 1.49761
lowerback -6.37149 1.18632 -4.23687
upperback -0.345551 1.85051 1.07641
thorax 3.04642 0.856726 3.6578
lowerneck -21.1189 -4.96195 -12.4092
upperneck 21.6411 -6.38766 13.3449
head 11.4002 -2.33007 6.02031
rclavicle 3.52843e-015 -7.15625e-015
rhumerus -32.268 15.1576 -87.8456
rradius 38.2999
rwrist -18.2139
rhand -29.5931 -26.9824
rfingers 7.12502
rthumb -2.92453 -56.9421
lclavicle 3.52843e-015 -7.15625e-015
lhumerus -41.9619 -0.845009 85.3601
lradius 19.0035
lwrist -8.92819
lhand -8.9004 -27.484
lfingers 7.12502
lthumb 17.0423 1.78841
rfemur 0.0759912 -3.36337 18.3182
rtibia 43.1847
rfoot 12.5391 0.389805
rtoes -21.2725
lfemur -25.6096 6.9333 -25.3794
ltibia 20.1333
lfoot -2.49764 5.37735
ltoes -0.687731
228
root 9.53108 17.1043 0.827036 6.29796 -4.60648 2.04202
lowerback -6.33894 1.14052 -4.68664
upperback -0.272417 1.82578 0.952826
thorax 3.09675 0.836095 3.78126
lowerneck -21.2603 -4.94201 -12.3728
upperneck 21.738 -6.29867 13.1049
head 11.4385 -2.31039 5.93936
rclavicle -2.66123e-014 -1.51076e-014
rhumerus -32.7957 15.069 -88.0065
rradius 38.0719
rwrist -18.298
rhand -29.6976 -26.4314
rfingers 7.12502
rthumb -3.02542 -56.3897
lclavicle -2.66123e-014 -1.51076e-014
lhumerus -41.2513 -1.15942 85.6635
lradius 18.9665
lwrist -8.52645
lhand -9.17678 -27.7328
lfingers 7.12502
lthumb 16.7763 1.56238
rfemur -1.40249 -3.458 17.56
rtibia 46.3164
rfoot 13.46 -0.338441
rtoes -19.7036
lfemur -24.6771 7.42244 -26.1041
ltibia 19.8322
lfoot -3.02386 4.99176
ltoes 0.913924
229
root 9.55823 17.1183 0.973974 6.30984 -4.73212 2.46052
lowerback -6.37926 1.08461 -4.95979
upperback -0.261382 1.77722 0.834325
thorax 3.13139 0.807474 3.80936
lowerneck -21.4785 -4.9494 -12.2971
upperneck 21.8261 -6.24988 12.857
head 11.4934 -2.30421 5.84142
rclavicle 2.15681e-014 2.18663e-014
rhumerus -33.4383 15.1094 -88.1891
rradius 38.037
rwrist -18.5651
rhand -29.8594 -24.9671
rfingers 7.12502
rthumb -3.18169 -54.9231
lclavicle 2.15681e-014 2.18663e-014
lhumerus -40.4049 -1.35121 85.8361
lradius 18.8664
lwrist -8.72876
lhand -9.74853 -28.1112
lfingers 7.12502
lthumb 16.2258 1.2298
rfemur -3.09751 -3.87131 16.9198
rtibia 49.3431
rfoot 14.0863 -0.614484
rtoes -22.0451
lfemur -23.9957 7.77845 -26.7117
ltibia 19.5926
lfoot -3.50042 4.57052
ltoes 1.5158
230
root 9.58923 17.1218 1.11729 6.19361 -4.80346 2.95245
lowerback -6.12227 1.00064 -5.31719
upperback -0.3735 1.67661 0.746622
thorax 2.87375 0.762982 3.90186
lowerneck -21.3661 -4.82306 -12.3992
upperneck 21.9149 -6.04689 12.8259
head 11.4757 -2.22887 5.88522
rclavicle -6.88292e-015 2.78299e-015
rhumerus -34.3076 15.1778 -88.4329
rradius 38.1343
rwrist -18.6179
rhand -29.9251 -24.5288
rfingers 7.12502
rthumb -3.24509 -54.4839
lclavicle -6.88292e-015 2.78299e-015
lhumerus -39.942 -1.51657 86.1117
lradius 18.9208
lwrist -9.14928
lhand -10.5525 -28.4227
lfingers 7.12502
lthumb 15.4516 0.979719
rfemur -4.66026 -4.09159 16.2736
rtibia 52.2652
rfoot 13.7757 -1.29614
rtoes -25.8761
lfemur -23.0631 8.13328 -27.3968
ltibia 19.1338
lfoot -3.75727 4.14873
ltoes 2.12135
231
root 9.61573 17.1164 1.27952 5.85154 -5.24645 3.61426
lowerback -5.97978 1.0143 -5.91988
upperback -0.30135 1.73278 0.631752
thorax 2.84914 0.782961 4.1235
lowerneck -21.443 -4.7126 -12.467
upperneck 22.0805 -5.85821 12.7774
head 11.524 -2.15333 5.9178
rclavicle 1.75427e-014 8.34896e-015
rhumerus -34.8033 15.1879 -88.5823
rradius 37.8429
rwrist -18.3917
rhand -29.869 -25.3008
rfingers 7.12502
rthumb -3.19093 -55.2567
lclavicle 1.75427e-014 8.34896e-015
lhumerus -39.4565 -2.04755 86.5655
lradius 19.156
lwrist -8.95276
lhand -10.9838 -28.3852
lfingers 7.12502
lthumb 15.0361 1.04884
rfemur -5.90479 -3.42557 15.5984
rtibia 55.0416
rfoot 13.7412 -4.34675
rtoes -24.7907
lfemur -21.6592 8.66999 -28.1845
ltibia 18.305
lfoot -3.95598 3.92769
ltoes 1.86
232
root 9.6424 17.1265 1.45121 5.37413 -5.52572 4.61998
lowerback -6.02297 0.916063 -6.81689
upperback -0.0347075 1.68368 0.375304
thorax 3.14002 0.730515 4.36348
lowerneck -21.5377 -4.57752 -12.395
upperneck 22.0174 -5.6582 12.7259
head 11.4833 -2.05976 5.91614
rclavicle -2.42517e-014 -1.19271e-015
rhumerus -35.0935 15.2686 -88.7542
rradius 37.5546
rwrist -18.1861
rhand -29.4837 -25.534
rfingers 7.12502
rthumb -2.81889 -55.4951
lclavicle -2.42517e-014 -1.19271e-015
lhumerus -38.7178 -2.73433 86.9363
lradius 19.596
lwrist -7.9623
lhand -10.4525 -27.7561
lfingers 7.12502
lthumb 15.5479 1.63885
rfemur -6.69661 -3.66422 14.2203
rtibia 57.5976
rfoot 12.415 -6.37612
rtoes -21.3902
lfemur -19.9592 9.10881 -29.414
ltibia 17.3998
lfoot -4.28374 3.70745
ltoes -0.819682
